<svg width="82" height="82" viewBox="0 0 82 82" fill="none" xmlns="http://www.w3.org/2000/svg">
<path d="M79.9688 0.855469H70.8763C70.7218 0.855381 70.5689 0.885733 70.4262 0.94479C70.2835 1.00385 70.1539 1.09045 70.0447 1.19965C69.9355 1.30885 69.8489 1.4385 69.7898 1.58119C69.7308 1.72389 69.7004 1.87682 69.7005 2.03125V5.40205H46.7224V2.03125C46.7224 1.71941 46.5985 1.42035 46.378 1.19985C46.1575 0.979346 45.8584 0.855469 45.5466 0.855469H36.4534C36.1416 0.855469 35.8425 0.979346 35.622 1.19985C35.4015 1.42035 35.2776 1.71941 35.2776 2.03125V5.40205H12.2995V2.03125C12.2996 1.87682 12.2693 1.72389 12.2102 1.58119C12.1511 1.4385 12.0645 1.30885 11.9553 1.19965C11.8461 1.09045 11.7165 1.00385 11.5738 0.94479C11.4311 0.885733 11.2782 0.855381 11.1237 0.855469H2.03125C1.87682 0.855381 1.72389 0.885733 1.58119 0.94479C1.4385 1.00385 1.30885 1.09045 1.19965 1.19965C1.09045 1.30885 1.00385 1.4385 0.94479 1.58119C0.885733 1.72389 0.855381 1.87682 0.855469 2.03125V11.1237C0.855381 11.2782 0.885733 11.4311 0.94479 11.5738C1.00385 11.7165 1.09045 11.8461 1.19965 11.9553C1.30885 12.0645 1.4385 12.1511 1.58119 12.2102C1.72389 12.2693 1.87682 12.2996 2.03125 12.2995H5.40205V35.2776H2.03125C1.71941 35.2776 1.42035 35.4015 1.19985 35.622C0.979346 35.8425 0.855469 36.1416 0.855469 36.4534V45.5466C0.855469 45.8584 0.979346 46.1575 1.19985 46.378C1.42035 46.5985 1.71941 46.7224 2.03125 46.7224H5.40205V69.7005H2.03125C1.87682 69.7004 1.72389 69.7308 1.58119 69.7898C1.4385 69.8489 1.30885 69.9355 1.19965 70.0447C1.09045 70.1539 1.00385 70.2835 0.94479 70.4262C0.885733 70.5689 0.855381 70.7218 0.855469 70.8763V79.9688C0.855381 80.1232 0.885733 80.2761 0.94479 80.4188C1.00385 80.5615 1.09045 80.6912 1.19965 80.8004C1.30885 80.9096 1.4385 80.9962 1.58119 81.0552C1.72389 81.1143 1.87682 81.1446 2.03125 81.1445H11.1237C11.2782 81.1446 11.4311 81.1143 11.5738 81.0552C11.7165 80.9962 11.8461 80.9096 11.9553 80.8004C12.0645 80.6912 12.1511 80.5615 12.2102 80.4188C12.2693 80.2761 12.2996 80.1232 12.2995 79.9688V76.598H35.2776V79.9688C35.2776 80.2806 35.4015 80.5796 35.622 80.8001C35.8425 81.0206 36.1416 81.1445 36.4534 81.1445H45.5466C45.8584 81.1445 46.1575 81.0206 46.378 80.8001C46.5985 80.5796 46.7224 80.2806 46.7224 79.9688V76.598H69.7005V79.9688C69.7004 80.1232 69.7308 80.2761 69.7898 80.4188C69.8489 80.5615 69.9355 80.6912 70.0447 80.8004C70.1539 80.9096 70.2835 80.9962 70.4262 81.0552C70.5689 81.1143 70.7218 81.1446 70.8763 81.1445H79.9688C80.1232 81.1446 80.2761 81.1143 80.4188 81.0552C80.5615 80.9962 80.6912 80.9096 80.8004 80.8004C80.9096 80.6912 80.9962 80.5615 81.0552 80.4188C81.1143 80.2761 81.1446 80.1232 81.1445 79.9688V70.8763C81.1446 70.7218 81.1143 70.5689 81.0552 70.4262C80.9962 70.2835 80.9096 70.1539 80.8004 70.0447C80.6912 69.9355 80.5615 69.8489 80.4188 69.7898C80.2761 69.7308 80.1232 69.7004 79.9688 69.7005H76.5959V46.7224H79.9688C80.2806 46.7224 80.5796 46.5985 80.8001 46.378C81.0206 46.1575 81.1445 45.8584 81.1445 45.5466V36.4534C81.1445 36.1416 81.0206 35.8425 80.8001 35.622C80.5796 35.4015 80.2806 35.2776 79.9688 35.2776H76.5959V12.2995H79.9688C80.1232 12.2996 80.2761 12.2693 80.4188 12.2102C80.5615 12.1511 80.6912 12.0645 80.8004 11.9553C80.9096 11.8461 80.9962 11.7165 81.0552 11.5738C81.1143 11.4311 81.1446 11.2782 81.1445 11.1237V2.03125C81.1446 1.87682 81.1143 1.72389 81.0552 1.58119C80.9962 1.4385 80.9096 1.30885 80.8004 1.19965C80.6912 1.09045 80.5615 1.00385 80.4188 0.94479C80.2761 0.885733 80.1232 0.855381 79.9688 0.855469ZM37.6292 3.20703H44.3708V9.94795H37.6292V3.20703ZM3.20703 3.20703H9.94795V9.94795H3.20703V3.20703ZM3.20703 37.6292H9.94795V44.3708H3.20703V37.6292ZM9.94795 78.793H3.20703V72.052H9.94795V78.793ZM44.3708 78.793H37.6292V72.052H44.3708V78.793ZM78.793 78.793H72.052V72.052H78.7923L78.793 78.793ZM78.793 44.3708H72.052V37.6292H78.793V44.3708ZM74.2444 35.2776H70.8763C70.5644 35.2776 70.2654 35.4015 70.0449 35.622C69.8244 35.8425 69.7005 36.1416 69.7005 36.4534V45.5466C69.7005 45.8584 69.8244 46.1575 70.0449 46.378C70.2654 46.5985 70.5644 46.7224 70.8763 46.7224H74.2444V69.7005H70.8763C70.7218 69.7004 70.5689 69.7308 70.4262 69.7898C70.2835 69.8489 70.1539 69.9355 70.0447 70.0447C69.9355 70.1539 69.8489 70.2835 69.7898 70.4262C69.7308 70.5689 69.7004 70.7218 69.7005 70.8763V74.2464H46.7224V70.8763C46.7224 70.5644 46.5985 70.2654 46.378 70.0449C46.1575 69.8244 45.8584 69.7005 45.5466 69.7005H36.4534C36.1416 69.7005 35.8425 69.8244 35.622 70.0449C35.4015 70.2654 35.2776 70.5644 35.2776 70.8763V74.2464H12.2995V70.8763C12.2996 70.7218 12.2693 70.5689 12.2102 70.4262C12.1511 70.2835 12.0645 70.1539 11.9553 70.0447C11.8461 69.9355 11.7165 69.8489 11.5738 69.7898C11.4311 69.7308 11.2782 69.7004 11.1237 69.7005H7.75361V46.7224H11.1237C11.4356 46.7224 11.7346 46.5985 11.9551 46.378C12.1756 46.1575 12.2995 45.8584 12.2995 45.5466V36.4534C12.2995 36.1416 12.1756 35.8425 11.9551 35.622C11.7346 35.4015 11.4356 35.2776 11.1237 35.2776H7.75361V12.2995H11.1237C11.2782 12.2996 11.4311 12.2693 11.5738 12.2102C11.7165 12.1511 11.8461 12.0645 11.9553 11.9553C12.0645 11.8461 12.1511 11.7165 12.2102 11.5738C12.2693 11.4311 12.2996 11.2782 12.2995 11.1237V7.75361H35.2776V11.1237C35.2776 11.4356 35.4015 11.7346 35.622 11.9551C35.8425 12.1756 36.1416 12.2995 36.4534 12.2995H45.5466C45.8584 12.2995 46.1575 12.1756 46.378 11.9551C46.5985 11.7346 46.7224 11.4356 46.7224 11.1237V7.75361H69.7005V11.1237C69.7004 11.2782 69.7308 11.4311 69.7898 11.5738C69.8489 11.7165 69.9355 11.8461 70.0447 11.9553C70.1539 12.0645 70.2835 12.1511 70.4262 12.2102C70.5689 12.2693 70.7218 12.2996 70.8763 12.2995H74.2444V35.2776ZM78.793 9.94795H72.052V3.20703H78.793V9.94795Z" fill="#4B4B4B"/>
</svg>
